<svg xmlns="http://www.w3.org/2000/svg" viewBox="0 0 64 64">
  <defs><linearGradient id="t" x1="0" y1="0" x2="0" y2="1"><stop offset="0" stop-color="#fff" stop-opacity=".06"/><stop offset="1" stop-color="#fff" stop-opacity="0"/></linearGradient></defs>
  <rect width="64" height="64" rx="12" fill="#541E29"/>
  <rect width="64" height="64" rx="12" fill="url(#t)"/>
  <g transform="translate(32 32) scale(0.9) translate(-32 -32)">
  <g stroke="#F5EFE2" stroke-width="3.4" fill="none">
    <path d="M32 9 V55 M12.1 20.5 L51.9 43.5 M12.1 43.5 L51.9 20.5"/>
    <path d="M26 13 L32 19 L38 13 M26 51 L32 45 L38 51"/>
    <path d="M12.7 28.3 L20.9 26 L18.7 17.8 M51.3 35.7 L43.1 38 L45.3 46.2"/>
    <path d="M12.7 35.7 L20.9 38 L18.7 46.2 M51.3 28.3 L43.1 26 L45.3 17.8"/>
  </g>
  </g>
</svg>
