<svg xmlns="http://www.w3.org/2000/svg" viewBox="0 0 64 64">
  <defs><linearGradient id="t" x1="0" y1="0" x2="0" y2="1"><stop offset="0" stop-color="#fff" stop-opacity=".06"/><stop offset="1" stop-color="#fff" stop-opacity="0"/></linearGradient></defs>
  <rect width="64" height="64" rx="12" fill="#746023"/>
  <rect width="64" height="64" rx="12" fill="url(#t)"/>
  <g transform="translate(32 32) scale(1) translate(-32 -32)">
  <rect x="30.5" y="17" width="3" height="33" fill="#F5EFE2"/>
  <path d="M32 5 C36.2 9 36.2 16 32 20 C27.8 16 27.8 9 32 5 Z" fill="#F5EFE2"/>
  <path d="M30.5 25 C24 25 20.5 21 20.5 15.5 C26.5 15.5 30.5 20 30.5 25 Z M33.5 25 C40 25 43.5 21 43.5 15.5 C37.5 15.5 33.5 20 33.5 25 Z M30.5 33 C24 33 20.5 29 20.5 23.5 C26.5 23.5 30.5 28 30.5 33 Z M33.5 33 C40 33 43.5 29 43.5 23.5 C37.5 23.5 33.5 28 33.5 33 Z M30.5 41 C24 41 20.5 37 20.5 31.5 C26.5 31.5 30.5 36 30.5 41 Z M33.5 41 C40 41 43.5 37 43.5 31.5 C37.5 31.5 33.5 36 33.5 41 Z" fill="#F5EFE2"/>
  <rect x="10" y="49" width="44" height="3" fill="#D9A94E"/>
  </g>
</svg>
