<svg xmlns="http://www.w3.org/2000/svg" viewBox="0 0 64 64">
  <defs><linearGradient id="t" x1="0" y1="0" x2="0" y2="1"><stop offset="0" stop-color="#fff" stop-opacity=".06"/><stop offset="1" stop-color="#fff" stop-opacity="0"/></linearGradient></defs>
  <rect width="64" height="64" rx="12" fill="#3B3480"/>
  <rect width="64" height="64" rx="12" fill="url(#t)"/>
  <g transform="translate(32 32) scale(1) translate(-32 -32)">
  <path d="M19 50 A13 13 0 0 1 45 50 Z" fill="#F5EFE2"/>
  <path d="M15.56 51.44 L7.00 50.00 L15.56 48.56 Z" fill="#D9A94E"/><path d="M17.05 43.03 L10.35 37.50 L18.48 40.54 Z" fill="#D9A94E"/><path d="M22.54 36.48 L19.50 28.35 L25.03 35.05 Z" fill="#D9A94E"/><path d="M30.56 33.56 L32.00 25.00 L33.44 33.56 Z" fill="#D9A94E"/><path d="M38.97 35.05 L44.50 28.35 L41.46 36.48 Z" fill="#D9A94E"/><path d="M45.52 40.54 L53.65 37.50 L46.95 43.03 Z" fill="#D9A94E"/><path d="M48.44 48.56 L57.00 50.00 L48.44 51.44 Z" fill="#D9A94E"/>
  <rect x="10" y="49" width="44" height="3" fill="#D9A94E"/>
  </g>
</svg>
